<svg id="visual" viewBox="0 0 960 200" width="960" height="200" xmlns="http://www.w3.org/2000/svg" xmlns:xlink="http://www.w3.org/1999/xlink" version="1.1"><rect x="0" y="0" width="960" height="200" fill="#001220"></rect><path d="M0 126L17.8 128.2C35.7 130.3 71.3 134.7 106.8 132C142.3 129.3 177.7 119.7 213.2 119.5C248.7 119.3 284.3 128.7 320 136C355.7 143.3 391.3 148.7 426.8 143.8C462.3 139 497.7 124 533.2 125.2C568.7 126.3 604.3 143.7 640 147.2C675.7 150.7 711.3 140.3 746.8 130.8C782.3 121.3 817.7 112.7 853.2 114.5C888.7 116.3 924.3 128.7 942.2 134.8L960 141L960 0L942.2 0C924.3 0 888.7 0 853.2 0C817.7 0 782.3 0 746.8 0C711.3 0 675.7 0 640 0C604.3 0 568.7 0 533.2 0C497.7 0 462.3 0 426.8 0C391.3 0 355.7 0 320 0C284.3 0 248.7 0 213.2 0C177.7 0 142.3 0 106.8 0C71.3 0 35.7 0 17.8 0L0 0Z" fill="#fa7268"></path><path d="M0 88L17.8 90.5C35.7 93 71.3 98 106.8 101.2C142.3 104.3 177.7 105.7 213.2 106.3C248.7 107 284.3 107 320 104C355.7 101 391.3 95 426.8 94.5C462.3 94 497.7 99 533.2 105.3C568.7 111.7 604.3 119.3 640 122C675.7 124.7 711.3 122.3 746.8 115.8C782.3 109.3 817.7 98.7 853.2 93.3C888.7 88 924.3 88 942.2 88L960 88L960 0L942.2 0C924.3 0 888.7 0 853.2 0C817.7 0 782.3 0 746.8 0C711.3 0 675.7 0 640 0C604.3 0 568.7 0 533.2 0C497.7 0 462.3 0 426.8 0C391.3 0 355.7 0 320 0C284.3 0 248.7 0 213.2 0C177.7 0 142.3 0 106.8 0C71.3 0 35.7 0 17.8 0L0 0Z" fill="#ef5f67"></path><path d="M0 60L17.8 67C35.7 74 71.3 88 106.8 95.2C142.3 102.3 177.7 102.7 213.2 102.2C248.7 101.7 284.3 100.3 320 100.2C355.7 100 391.3 101 426.8 98.7C462.3 96.3 497.7 90.7 533.2 84.7C568.7 78.7 604.3 72.3 640 69.3C675.7 66.3 711.3 66.7 746.8 71.5C782.3 76.3 817.7 85.7 853.2 84.7C888.7 83.7 924.3 72.3 942.2 66.7L960 61L960 0L942.2 0C924.3 0 888.7 0 853.2 0C817.7 0 782.3 0 746.8 0C711.3 0 675.7 0 640 0C604.3 0 568.7 0 533.2 0C497.7 0 462.3 0 426.8 0C391.3 0 355.7 0 320 0C284.3 0 248.7 0 213.2 0C177.7 0 142.3 0 106.8 0C71.3 0 35.7 0 17.8 0L0 0Z" fill="#e34c67"></path><path d="M0 43L17.8 48.8C35.7 54.7 71.3 66.3 106.8 65.3C142.3 64.3 177.7 50.7 213.2 50.5C248.7 50.3 284.3 63.7 320 68.2C355.7 72.7 391.3 68.3 426.8 65.7C462.3 63 497.7 62 533.2 60C568.7 58 604.3 55 640 52.7C675.7 50.3 711.3 48.7 746.8 46.8C782.3 45 817.7 43 853.2 44.8C888.7 46.7 924.3 52.3 942.2 55.2L960 58L960 0L942.2 0C924.3 0 888.7 0 853.2 0C817.7 0 782.3 0 746.8 0C711.3 0 675.7 0 640 0C604.3 0 568.7 0 533.2 0C497.7 0 462.3 0 426.8 0C391.3 0 355.7 0 320 0C284.3 0 248.7 0 213.2 0C177.7 0 142.3 0 106.8 0C71.3 0 35.7 0 17.8 0L0 0Z" fill="#d53867"></path><path d="M0 37L17.8 38.7C35.7 40.3 71.3 43.7 106.8 43.2C142.3 42.7 177.7 38.3 213.2 35C248.7 31.7 284.3 29.3 320 31.3C355.7 33.3 391.3 39.7 426.8 39.7C462.3 39.7 497.7 33.3 533.2 29.7C568.7 26 604.3 25 640 23.3C675.7 21.7 711.3 19.3 746.8 22.2C782.3 25 817.7 33 853.2 34.7C888.7 36.3 924.3 31.7 942.2 29.3L960 27L960 0L942.2 0C924.3 0 888.7 0 853.2 0C817.7 0 782.3 0 746.8 0C711.3 0 675.7 0 640 0C604.3 0 568.7 0 533.2 0C497.7 0 462.3 0 426.8 0C391.3 0 355.7 0 320 0C284.3 0 248.7 0 213.2 0C177.7 0 142.3 0 106.8 0C71.3 0 35.7 0 17.8 0L0 0Z" fill="#c62368"></path></svg>