<svg id="visual" viewBox="0 0 960 200" width="960" height="200" xmlns="http://www.w3.org/2000/svg" xmlns:xlink="http://www.w3.org/1999/xlink" version="1.1"><rect x="0" y="0" width="960" height="200" fill="#001220"></rect><path d="M0 37L17.8 38.3C35.7 39.7 71.3 42.3 106.8 49.3C142.3 56.3 177.7 67.7 213.2 74C248.7 80.3 284.3 81.7 320 82.3C355.7 83 391.3 83 426.8 74.8C462.3 66.7 497.7 50.3 533.2 43C568.7 35.7 604.3 37.3 640 37.2C675.7 37 711.3 35 746.8 43.5C782.3 52 817.7 71 853.2 72.7C888.7 74.3 924.3 58.7 942.2 50.8L960 43L960 201L942.2 201C924.3 201 888.7 201 853.2 201C817.7 201 782.3 201 746.8 201C711.3 201 675.7 201 640 201C604.3 201 568.7 201 533.2 201C497.7 201 462.3 201 426.8 201C391.3 201 355.7 201 320 201C284.3 201 248.7 201 213.2 201C177.7 201 142.3 201 106.8 201C71.3 201 35.7 201 17.8 201L0 201Z" fill="#fa7268"></path><path d="M0 106L17.8 107.5C35.7 109 71.3 112 106.8 112.8C142.3 113.7 177.7 112.3 213.2 112C248.7 111.7 284.3 112.3 320 105.7C355.7 99 391.3 85 426.8 83.2C462.3 81.3 497.7 91.7 533.2 94.8C568.7 98 604.3 94 640 93.3C675.7 92.7 711.3 95.3 746.8 93.3C782.3 91.3 817.7 84.7 853.2 81.8C888.7 79 924.3 80 942.2 80.5L960 81L960 201L942.2 201C924.3 201 888.7 201 853.2 201C817.7 201 782.3 201 746.8 201C711.3 201 675.7 201 640 201C604.3 201 568.7 201 533.2 201C497.7 201 462.3 201 426.8 201C391.3 201 355.7 201 320 201C284.3 201 248.7 201 213.2 201C177.7 201 142.3 201 106.8 201C71.3 201 35.7 201 17.8 201L0 201Z" fill="#ef5f67"></path><path d="M0 109L17.8 111.5C35.7 114 71.3 119 106.8 122C142.3 125 177.7 126 213.2 123.7C248.7 121.3 284.3 115.7 320 117.2C355.7 118.7 391.3 127.3 426.8 125C462.3 122.7 497.7 109.3 533.2 102.2C568.7 95 604.3 94 640 97.3C675.7 100.7 711.3 108.3 746.8 108.8C782.3 109.3 817.7 102.7 853.2 106.2C888.7 109.7 924.3 123.3 942.2 130.2L960 137L960 201L942.2 201C924.3 201 888.7 201 853.2 201C817.7 201 782.3 201 746.8 201C711.3 201 675.7 201 640 201C604.3 201 568.7 201 533.2 201C497.7 201 462.3 201 426.8 201C391.3 201 355.7 201 320 201C284.3 201 248.7 201 213.2 201C177.7 201 142.3 201 106.8 201C71.3 201 35.7 201 17.8 201L0 201Z" fill="#e34c67"></path><path d="M0 161L17.8 158C35.7 155 71.3 149 106.8 147.5C142.3 146 177.7 149 213.2 149.3C248.7 149.7 284.3 147.3 320 146.3C355.7 145.3 391.3 145.7 426.8 144C462.3 142.3 497.7 138.7 533.2 139C568.7 139.3 604.3 143.7 640 145.3C675.7 147 711.3 146 746.8 142.7C782.3 139.3 817.7 133.7 853.2 135.3C888.7 137 924.3 146 942.2 150.5L960 155L960 201L942.2 201C924.3 201 888.7 201 853.2 201C817.7 201 782.3 201 746.8 201C711.3 201 675.7 201 640 201C604.3 201 568.7 201 533.2 201C497.7 201 462.3 201 426.8 201C391.3 201 355.7 201 320 201C284.3 201 248.7 201 213.2 201C177.7 201 142.3 201 106.8 201C71.3 201 35.7 201 17.8 201L0 201Z" fill="#d53867"></path><path d="M0 159L17.8 161.7C35.7 164.3 71.3 169.7 106.8 172.5C142.3 175.3 177.7 175.7 213.2 175.5C248.7 175.3 284.3 174.7 320 175.2C355.7 175.7 391.3 177.3 426.8 178.7C462.3 180 497.7 181 533.2 180.5C568.7 180 604.3 178 640 173.7C675.7 169.3 711.3 162.7 746.8 162.3C782.3 162 817.7 168 853.2 170.5C888.7 173 924.3 172 942.2 171.5L960 171L960 201L942.2 201C924.3 201 888.7 201 853.2 201C817.7 201 782.3 201 746.8 201C711.3 201 675.7 201 640 201C604.3 201 568.7 201 533.2 201C497.7 201 462.3 201 426.8 201C391.3 201 355.7 201 320 201C284.3 201 248.7 201 213.2 201C177.7 201 142.3 201 106.8 201C71.3 201 35.7 201 17.8 201L0 201Z" fill="#c62368"></path></svg>